<?xml version="1.0" encoding="UTF-8" standalone="no"?>
<!DOCTYPE svg PUBLIC "-//W3C//DTD SVG 1.1//EN"
"http://www.w3.org/Graphics/SVG/1.1/DTD/svg11.dtd">


<!-- Page 1 -->
<svg x="0" y="0" width="544" height="154" version="1.1" xmlns="http://www.w3.org/2000/svg" xmlns:xlink="http://www.w3.org/1999/xlink"
style="display: block;margin-left: auto;margin-right: auto;">
<defs>
<clipPath id="c0_1"><path d="M0.5,154.5l0,-154l544,0l0,154Z" /></clipPath>

<style type="text/css"><![CDATA[

.g2_1{
fill: #BBBCBB;
}
.g3_1{
fill: #184586;
}
.g1_1{
fill: #184687;
}


]]></style>

</defs>
<path d="M0,0
L0,154
L544,154
L544,0 Z " 
fill="#FFFFFF" stroke="none" />
<g clip-path="url(#c0_1)">
<path d="M110.4,0c4,10.2,-0.7,17.2,40.3,41.6c14.6,9.9,17.5,16.2,17.7,16.4c-2.3,-7.5,-5,-17.9,-28.1,-33.3C122.9,14.1,113,6.8,110.4,0Z" class="g1_1" />
</g>
<path d="M61.6,16c10.6,11.8,8.1,23.6,74.5,35.8c24.3,5.9,31.4,13,31.8,13.2c-7.1,-9,-16,-21.7,-54.2,-30.8C85.3,28.7,68.6,23.8,61.6,16Z" class="g1_1" />
<path d="M0,57.9c20,10.8,22.5,28,118.4,12.2c35.8,-3.8,48.9,2.3,49.5,2.4C154,63.7,135.7,50.8,79.4,57.2C38.3,63.5,13.3,65.1,0,57.9Z" class="g1_1" />
<path d="M164,150l0,-67l8,0l0,59l37,0l0,8Z" class="g2_1" />
<path d="M217,83l8,0l0,67l-8,0l0,-67Z" class="g2_1" />
<path d="M262.2,150.9L239.5,83.8l8.4,0l15.2,48.7c1.2,3.9,2.3,7.6,3.1,11c0.9,-3.6,1.9,-7.3,3.1,-11L285.1,83.8l7.9,0l-22.8,67.1Z" class="g2_1" />
<path d="M306,150l0,-67l46,0l0,8l-39,0l0,21l37,0l0,8l-37,0l0,22l41,0l0,8Z" class="g2_1" />
<path d="M386.7,152.8l-23.9,-70l8.9,0l16,50.8c1.3,4.1,2.4,7.9,3.2,11.5c1,-3.9,2.1,-7.7,3.4,-11.5L410.9,82.8l8.3,0l-24.1,70Z" class="g3_1" />
<g clip-path="url(#c0_1)">
<path d="M429.8,118.4c0,8.8,2.2,15.6,6.6,20.7c4.4,5,9.9,7.5,16.5,7.5c6.7,0,12.3,-2.5,16.6,-7.6c4.4,-5.1,6.5,-12.3,6.5,-21.6c0,-5.9,-0.9,-11,-2.8,-15.4c-1.8,-4.4,-4.5,-7.8,-8.1,-10.3C461.5,89.3,457.5,88.1,453,88.1c-6.3,0,-11.8,2.3,-16.4,7c-4.5,4.7,-6.8,12.4,-6.8,23.3m-9.3,-0.1c0,-12,3,-21.5,9.1,-28.3c6,-6.8,13.8,-10.2,23.4,-10.2c6.2,0,11.9,1.6,16.9,4.8c5,3.2,8.8,7.7,11.5,13.4c2.6,5.7,3.9,12.2,3.9,19.4c0,7.4,-1.4,14,-4.2,19.8c-2.7,5.7,-6.7,10.1,-11.7,13.1c-5.1,3,-10.6,4.5,-16.5,4.5c-6.4,0,-12.1,-1.7,-17.1,-4.9c-5,-3.3,-8.8,-7.8,-11.4,-13.5c-2.6,-5.7,-3.9,-11.8,-3.9,-18.1Z" class="g3_1" />
<path d="M487.5,150.9l24.1,-35.3L490.3,82.9l9.8,0l11.4,17.4c2.4,3.6,4.1,6.4,5.1,8.3c1.3,-2.4,3,-4.9,4.9,-7.6L534,82.9l8.9,0l-21.6,32.3l23.4,35.7l-10.2,0L518.8,126.6c-0.9,-1.4,-1.8,-2.8,-2.6,-4.2c-1.4,2.4,-2.4,4,-3,4.9l-15.8,23.6Z" class="g3_1" />
</g>

<title>livevox-logo Page1</title>
</svg>
